<svg width="24" height="25" viewBox="0 0 24 25" fill="none" xmlns="http://www.w3.org/2000/svg">
<path d="M2 5.76316C2 5.06421 2.55833 4.5 3.25 4.5H16.5833C17.275 4.5 17.8333 5.06421 17.8333 5.76316C17.8333 6.46211 17.275 7.02632 16.5833 7.02632H3.25C2.55833 7.02632 2 6.46211 2 5.76316ZM16.5833 17.9737H3.25C2.55833 17.9737 2 18.5379 2 19.2368C2 19.9358 2.55833 20.5 3.25 20.5H16.5833C17.275 20.5 17.8333 19.9358 17.8333 19.2368C17.8333 18.5379 17.275 17.9737 16.5833 17.9737ZM20.75 11.2368H7.41667C6.725 11.2368 6.16667 11.8011 6.16667 12.5C6.16667 13.1989 6.725 13.7632 7.41667 13.7632H20.75C21.4417 13.7632 22 13.1989 22 12.5C22 11.8011 21.4417 11.2368 20.75 11.2368Z" fill="#004890"/>
</svg>
