<svg width="20" height="16" viewBox="0 0 20 16" fill="none" xmlns="http://www.w3.org/2000/svg">
<path d="M0 1.26316C0 0.564211 0.558333 0 1.25 0H14.5833C15.275 0 15.8333 0.564211 15.8333 1.26316C15.8333 1.96211 15.275 2.52632 14.5833 2.52632H1.25C0.558333 2.52632 0 1.96211 0 1.26316ZM14.5833 13.4737H1.25C0.558333 13.4737 0 14.0379 0 14.7368C0 15.4358 0.558333 16 1.25 16H14.5833C15.275 16 15.8333 15.4358 15.8333 14.7368C15.8333 14.0379 15.275 13.4737 14.5833 13.4737ZM18.75 6.73684H5.41667C4.725 6.73684 4.16667 7.30105 4.16667 8C4.16667 8.69895 4.725 9.26316 5.41667 9.26316H18.75C19.4417 9.26316 20 8.69895 20 8C20 7.30105 19.4417 6.73684 18.75 6.73684Z" fill="white"/>
</svg>
