<svg width="27" height="24" viewBox="0 0 27 24" fill="none" xmlns="http://www.w3.org/2000/svg">
<path d="M22.7917 12.0017C22.7767 14.394 22.6747 16.8111 22.862 19.2009C23.8194 16.8797 24.0731 14.4206 24.1027 12.0081C24.059 9.59014 23.819 7.13486 22.862 4.80729C22.6901 7.19743 22.7767 9.60986 22.7917 12.0017ZM26.2143 12.0086C26.1581 8.38757 25.841 4.743 24.6809 1.20986C24.7001 4.87543 24.917 8.538 24.9011 12.2044C24.8861 15.7367 24.6894 19.2681 24.6809 22.7987C25.8453 19.2699 26.1581 15.627 26.2143 12.0086ZM21.1606 9.91929L21.1014 9.90643C20.8794 4.27714 19.7763 0 18.4499 0C18.1944 0 17.948 0.161571 17.7136 0.457286C17.2044 1.02386 10.6679 8.18271 5.06943 8.87486C4.41414 8.95586 3.788 9.02314 3.20686 9.07157C2.53057 9.12857 1.91514 9.16029 1.38457 9.16029C1.38457 9.16029 0.5 10.5369 0.5 12.0094C0.5 13.4841 1.38629 14.8586 1.38629 14.8586C1.91686 14.8586 2.53314 14.8903 3.20943 14.9464C3.45586 14.9674 3.71386 14.9931 3.97529 15.0201V20.7639H7.439L10.841 17.5856C14.6399 20.091 17.7354 23.5821 17.7354 23.5821V23.5706C17.963 23.8483 18.2026 24 18.4499 24C19.7763 24 20.8794 19.7229 21.1019 14.0936L21.161 14.0811C21.5223 14.0811 21.8159 13.1486 21.8159 12.0004C21.8154 10.851 21.5219 9.91929 21.1606 9.91929ZM18.4499 0.899143C19.0623 1.43786 20.0124 4.56986 20.2374 9.71657L16.7051 8.94129C16.9863 4.25871 17.8687 1.40957 18.4499 0.899143ZM5.70714 13.0997C5.31629 13.0997 4.99829 12.7213 4.99829 12.2563C4.99829 11.79 5.31629 11.412 5.70714 11.412C6.09886 11.412 6.41514 11.79 6.41514 12.2563C6.41557 12.7217 6.09886 13.0997 5.70714 13.0997ZM7.439 17.5269V15.7731C7.86286 15.939 8.28714 16.1297 8.708 16.3414L7.439 17.5269ZM7.439 14.8603V10.389H5.44014C5.513 10.1246 5.59529 9.87429 5.68057 9.648C9.91057 8.87186 14.4041 4.98429 16.7519 2.68629C16.1446 4.88614 15.7563 8.24014 15.7563 12C15.7563 15.7706 16.1467 19.1331 16.7579 21.333C14.7397 19.3577 11.1166 16.1927 7.439 14.8603ZM18.4499 23.1009C17.8691 22.5904 16.9863 19.7409 16.7051 15.0583L20.2374 14.283C20.0124 19.4297 19.0623 22.5621 18.4499 23.1009Z" fill="#202020"/>
</svg>
